<svg width="151" height="151" viewBox="0 0 151 151" fill="none" xmlns="http://www.w3.org/2000/svg">
<path fill-rule="evenodd" clip-rule="evenodd" d="M26.856 2.316C14.878 6.399 7.423 13.378 2.785 24.847C0.522 30.444 0.5 30.942 0.5 75.5C0.5 120.058 0.522 120.556 2.785 126.153C7.493 137.797 15.677 145.276 27.813 149.024C33.747 150.857 37.202 151 75.5 151C113.798 151 117.253 150.857 123.187 149.024C135.323 145.276 143.507 137.797 148.215 126.153C150.478 120.556 150.5 120.058 150.5 75.5C150.5 30.942 150.478 30.444 148.215 24.847C143.507 13.203 135.323 5.724 123.187 1.976C117.243 0.14 113.839 0.00199934 75.145 0.0259993C34.535 0.0509993 33.335 0.108 26.856 2.316ZM123.535 19.907C127.213 22.016 129.303 24.141 131.285 27.783L134 32.771V75.5V118.229L131.285 123.217C129.303 126.859 127.213 128.984 123.535 131.093L118.5 133.981L75.635 133.991L32.771 134L27.783 131.285C24.141 129.303 22.016 127.213 19.907 123.535L17.019 118.5L17.009 75.635L17 32.771L19.715 27.783C21.697 24.141 23.787 22.016 27.465 19.907L32.5 17.019H75.5H118.5L123.535 19.907ZM113 26.734C110.567 27.588 107.837 30.325 106.855 32.894C104.907 37.991 109.855 45 115.403 45C120.543 45 125.677 38.546 124.444 33.633C123.305 29.097 117.036 25.317 113 26.734ZM64.286 38.393C53.892 41.783 44.854 49.812 40.16 59.825C37.834 64.787 37.5 66.76 37.5 75.521C37.5 84.8 37.74 86.029 40.741 92.126C44.645 100.055 51.797 107.078 59.782 110.82C64.792 113.168 66.741 113.5 75.521 113.5C84.8 113.5 86.029 113.26 92.126 110.259C100.055 106.355 107.078 99.203 110.82 91.218C113.167 86.211 113.5 84.257 113.5 75.5C113.5 66.743 113.167 64.789 110.82 59.782C107.099 51.842 100.051 44.643 92.232 40.793C86.728 38.084 84.456 37.56 77.127 37.312C71.742 37.129 66.916 37.536 64.286 38.393ZM82.384 54.222C90.508 56.635 98 66.843 98 75.5C98 86.981 86.981 98 75.5 98C64.019 98 53 86.981 53 75.5C53 69.944 55.441 64.504 59.972 59.961C66.455 53.463 73.635 51.624 82.384 54.222Z" fill="white"/>
</svg>
